<?xml version="1.0" encoding="UTF-8" standalone="no"?>
<!-- Created with Inkscape (http://www.inkscape.org/) -->

<svg
   width="95.46685mm"
   height="50.574875mm"
   viewBox="0 0 95.46685 50.574875"
   version="1.1"
   id="svg18121"
   xml:space="preserve"
   xmlns:inkscape="http://www.inkscape.org/namespaces/inkscape"
   xmlns:sodipodi="http://sodipodi.sourceforge.net/DTD/sodipodi-0.dtd"
   xmlns="http://www.w3.org/2000/svg"
   xmlns:svg="http://www.w3.org/2000/svg"><sodipodi:namedview
     id="namedview18123"
     pagecolor="#ffffff"
     bordercolor="#000000"
     borderopacity="0.25"
     inkscape:showpageshadow="2"
     inkscape:pageopacity="0.0"
     inkscape:pagecheckerboard="0"
     inkscape:deskcolor="#d1d1d1"
     inkscape:document-units="mm"
     showgrid="false"
     inkscape:zoom="1.0444209"
     inkscape:cx="467.24457"
     inkscape:cy="541.9271"
     inkscape:window-width="2560"
     inkscape:window-height="1009"
     inkscape:window-x="-8"
     inkscape:window-y="-8"
     inkscape:window-maximized="1"
     inkscape:current-layer="layer1" /><defs
     id="defs18118"><style
       id="style18125">
    </style></defs><g
     inkscape:label="Calque 1"
     inkscape:groupmode="layer"
     id="layer1"
     transform="translate(-57.26658,-123.21257)"><g
       id="Calque_1-2"
       data-name="Calque 1-2"
       transform="matrix(0.09546684,0,0,0.09546684,57.26658,123.21291)"
       
       inkscape:export-filename="maize.svg"
       inkscape:export-xdpi="96"
       inkscape:export-ydpi="96"><path
         class="cls-1"
         d="m 556.18,403.97 v 0 c -36.2,-13.32 -76.17,-13.32 -112.37,0 v 0 c -23.17,8.54 -29.68,38.23 -12.31,55.75 l 44.45,44.45 c 13.18,13.18 34.75,13.18 47.93,0 l 44.45,-44.45 c 17.52,-17.52 11,-47.21 -12.31,-55.75 z"
         id="path18129"
          /><g
         id="g18137"
         ><path
           class="cls-1"
           d="m 338.84,45.3 c -15.64,-2.75 -27.66,14.34 -19.26,27.8 25.49,41.41 44.02,99.91 44.02,167.54 0,55.31 -7.53,109.61 -30.41,137.71 -3.8,4.56 -1.92,11.58 4.02,11.5 1.48,-0.02 2.9,-0.57 4.11,-1.42 l 14.46,-10.08 c 8.98,-6.23 15.78,-15.2 18.97,-25.63 11.44,-38.37 17.81,-80.36 17.81,-124.53 0,-61.11 -12.45,-118.3 -33.16,-166.81 -3.62,-8.54 -11.58,-14.34 -20.56,-15.93 v 0 -0.14 0 z"
           id="path18131"
            /><path
           class="cls-1"
           d="m 0,229.77 c 0,132.2 42.43,245 108.46,293.08 12.31,8.98 28.96,9.27 41.56,0.43 l 27.95,-19.69 c 16.36,-11.44 19.98,-34.17 7.96,-49.96 -30.84,-40.54 -51.84,-118.16 -51.84,-209.24 0,-74.72 14.05,-139.3 36.2,-182.02 C 181.15,41.23 168.12,15.74 144.8,11.69 L 80.51,0.55 C 65.02,-2.2 49.52,5.47 42.72,19.66 15.49,76 0,149.7 0,229.77 Z"
           id="path18133"/><ellipse
           class="cls-1"
           cx="286.56"
           cy="252.50999"
           rx="39.82"
           ry="101.51"
           id="ellipse18135"
            /></g><g
         id="g18145"
         ><path
           class="cls-1"
           d="m 661.16,45.31 c 15.64,-2.75 27.66,14.34 19.26,27.8 -25.49,41.41 -44.02,99.91 -44.02,167.54 0,55.31 7.53,109.61 30.41,137.71 3.8,4.56 1.92,11.58 -4.02,11.5 -1.48,-0.02 -2.9,-0.57 -4.11,-1.42 l -14.46,-10.08 c -8.98,-6.23 -15.78,-15.2 -18.97,-25.63 -11.44,-38.37 -17.81,-80.36 -17.81,-124.53 0,-61.11 12.45,-118.3 33.16,-166.81 3.62,-8.54 11.58,-14.34 20.56,-15.93 v 0 -0.14 0 z"
           id="path18139"
           style="" /><path
           class="cls-1"
           d="m 1000,229.78 c 0,132.2 -42.43,245 -108.46,293.08 -12.31,8.98 -28.96,9.27 -41.56,0.43 L 822.03,503.6 c -16.36,-11.44 -19.98,-34.17 -7.96,-49.96 30.84,-40.54 51.84,-118.16 51.84,-209.24 0,-74.72 -14.05,-139.3 -36.2,-182.02 C 818.85,41.24 831.88,15.75 855.2,11.7 L 919.49,0.56 c 15.49,-2.75 30.99,4.92 37.79,19.11 27.23,56.34 42.72,130.04 42.72,210.11 z"
           id="path18141"
            /><ellipse
           class="cls-1"
           cx="713.44"
           cy="252.52"
           rx="39.82"
           ry="101.51"
           id="ellipse18143"
            /></g></g></g></svg>
