<?xml version="1.0" standalone="no"?>
<!DOCTYPE svg PUBLIC "-//W3C//DTD SVG 20010904//EN"
 "http://www.w3.org/TR/2001/REC-SVG-20010904/DTD/svg10.dtd">
<svg version="1.0" xmlns="http://www.w3.org/2000/svg"
 width="433.000000pt" height="433.000000pt" viewBox="0 0 433.000000 433.000000"
 preserveAspectRatio="xMidYMid meet">
<metadata>
Created by potrace 1.14, written by Peter Selinger 2001-2017
</metadata>
<g transform="translate(0.000000,433.000000) scale(0.100000,-0.100000)"
fill="#000000" stroke="none">
<path d="M2330 4323 c-8 -3 -55 -20 -105 -38 -49 -19 -261 -95 -470 -170 -209
-76 -454 -164 -545 -197 -91 -33 -183 -66 -205 -73 -22 -8 -65 -23 -95 -35
-30 -11 -98 -36 -150 -54 -367 -130 -383 -137 -462 -217 -61 -61 -109 -146
-127 -229 -11 -48 -6 -2150 5 -2224 3 -22 16 -60 29 -85 68 -136 209 -184 370
-128 l70 24 1 1004 c0 552 3 1016 6 1031 29 134 103 271 198 368 96 98 176
138 500 254 122 43 394 141 1020 368 168 60 308 115 311 120 9 15 -19 118 -44
158 -50 82 -121 122 -222 125 -38 2 -77 1 -85 -2z"/>
<path d="M3080 3900 c-31 -6 -645 -224 -710 -252 -14 -5 -61 -23 -105 -38 -44
-15 -163 -57 -265 -94 -102 -37 -333 -121 -515 -187 -181 -66 -348 -130 -370
-144 -60 -35 -128 -107 -163 -173 -59 -110 -59 -118 -56 -787 1 -335 3 -818 4
-1072 1 -338 5 -474 14 -510 49 -186 201 -259 400 -193 l67 22 -4 968 c-3 875
-1 1011 18 1101 10 50 61 165 97 219 49 74 132 158 202 204 77 51 43 38 901
347 187 67 448 161 580 209 l240 87 -3 43 c-7 95 -74 193 -157 229 -47 21
-126 30 -175 21z"/>
<path d="M3825 3478 c-37 -6 -93 -24 -240 -78 -33 -12 -107 -39 -165 -60 -227
-80 -868 -312 -915 -331 -27 -10 -176 -64 -329 -119 -154 -55 -298 -111 -320
-124 -59 -35 -130 -111 -166 -177 -65 -123 -63 -88 -61 -904 3 -1091 8 -1446
19 -1481 26 -83 81 -146 159 -181 76 -35 139 -30 288 22 194 69 408 146 430
155 17 8 240 88 665 240 58 21 164 59 235 85 72 26 204 74 295 106 91 33 185
72 208 85 60 36 135 115 170 183 66 123 63 53 57 1245 -6 1191 -3 1147 -68
1232 -64 84 -159 121 -262 102z m68 -270 c3 -13 6 -214 7 -448 1 -234 3 -699
5 -1035 4 -693 5 -683 -67 -756 -47 -46 5 -26 -838 -328 -157 -56 -301 -109
-320 -116 -32 -13 -392 -143 -654 -236 -60 -22 -113 -39 -117 -39 -4 0 -10 8
-14 18 -3 9 -9 493 -11 1074 -5 1039 -5 1058 15 1102 11 25 35 60 54 77 39 36
55 42 522 209 187 66 349 125 360 130 11 5 171 63 355 129 184 66 409 147 500
180 91 33 172 60 181 61 9 0 19 -10 22 -22z"/>
<path d="M3088 2655 c-2 -2 -25 -6 -53 -9 -74 -8 -149 -33 -250 -82 -326 -159
-581 -516 -646 -903 -17 -98 -14 -283 6 -376 67 -324 282 -517 587 -529 108
-5 276 36 378 92 132 72 168 100 290 222 225 226 357 527 366 835 3 109 -1
150 -30 283 -7 31 -82 187 -104 215 -61 79 -208 197 -245 197 -7 0 -17 4 -22
9 -19 16 -133 41 -203 45 -39 2 -73 2 -74 1z m187 -327 c158 -83 229 -279 188
-517 -77 -453 -475 -826 -802 -750 -95 21 -171 100 -212 220 -26 75 -35 239
-19 334 22 124 89 296 146 372 13 17 24 34 24 37 0 4 12 21 28 38 173 204 341
299 517 294 64 -2 90 -7 130 -28z"/>
</g>
</svg>
